<svg fill="none" height="32" viewBox="0 0 87 32" width="87" xmlns="http://www.w3.org/2000/svg">
  <path d="M0 19.8095V2.20106H7.54788C9.00429 2.20106 10.2168 2.40168 11.1853 2.80291C12.1611 3.20414 12.8929 3.75154 13.3808 4.44511C13.8687 5.13867 14.1127 5.92681 14.1127 6.80952C14.1127 7.54321 13.9561 8.17086 13.643 8.69246C13.3298 9.21407 12.9038 9.63536 12.365 9.95635C11.8261 10.2773 11.2253 10.5095 10.5626 10.6528V10.7903C11.2836 10.8305 11.9827 11.0311 12.6599 11.3922C13.3371 11.7476 13.8942 12.2463 14.3311 12.8882C14.7681 13.5302 14.9865 14.2983 14.9865 15.1925C14.9865 16.0809 14.7353 16.8748 14.2328 17.5741C13.7304 18.2676 12.9585 18.815 11.9171 19.2163C10.8831 19.6118 9.56501 19.8095 7.96295 19.8095H0ZM2.04262 18.3651H7.96295C9.6888 18.3651 10.9632 18.0642 11.786 17.4623C12.6162 16.8605 13.0313 16.1038 13.0313 15.1925C13.0313 14.5218 12.8237 13.9142 12.4087 13.3697C12.0009 12.8194 11.4219 12.3838 10.6719 12.0628C9.92911 11.7418 9.05526 11.5813 8.05034 11.5813H2.04262V18.3651ZM2.04262 10.1541H7.73357C8.6147 10.1541 9.38659 10.0108 10.0493 9.72421C10.7119 9.43761 11.229 9.04211 11.6003 8.5377C11.9717 8.03329 12.1574 7.45723 12.1574 6.80952C12.1574 5.87522 11.7715 5.11574 10.9996 4.53108C10.2277 3.9407 9.07711 3.6455 7.54788 3.6455H2.04262V10.1541Z" fill="currentColor"/>
  <path d="M19.9156 19.8095V2.20106H32.8922V3.6455H21.9582V10.2745H32.2041V11.7189H21.9582V18.3651H33.1107V19.8095H19.9156Z" fill="currentColor"/>
  <path d="M36.8333 10.7302V0.165079H38.4587V9.59524H44.6979V10.7302H36.8333Z" fill="currentColor"/>
  <path d="M48.49 19.8095V18.4457L62.4621 1.625H48.4163V0H65.2024V1.36384L51.2181 18.1845H65.3253V19.8095H48.49Z" fill="currentColor"/>
  <path d="M70.538 19.8095H68.3971L76.5348 2.20106H78.7194L86.8571 19.8095H84.7162L77.7036 4.29034H77.5506L70.538 19.8095ZM72.0782 13.0602H83.176V14.5046H72.0782V13.0602Z" fill="currentColor"/>
  <path d="M49.9005 24.381L52.5631 30.7946H52.6682L55.3308 24.381H56.4694L53.1762 32H52.0551L48.7619 24.381H49.9005Z" fill="currentColor"/>
  <path d="M60.1856 24.381V32H59.0996V24.381H60.1856Z" fill="currentColor"/>
  <path d="M64.1219 24.381L66.4342 27.5506H66.5042L68.8165 24.381H70.0952L67.275 28.1905L70.0952 32H68.8165L66.5042 28.8899H66.4342L64.1219 32H62.8432L65.7335 28.1905L62.8432 24.381H64.1219Z" fill="currentColor"/>
</svg>
