<svg width="128" height="128" viewBox="0 0 128 128" fill="none" xmlns="http://www.w3.org/2000/svg">
  <style>
    path { fill: #000000; }
    @media (prefers-color-scheme: dark) {
      path { fill: #ffffff; }
    }
  </style>
  <path d="M76.3036 91.9977L81.1961 103.783H81.3893L86.2818 91.9977H88.3739L82.3227 105.998H80.2627L74.2114 91.9977H76.3036Z" fill="black"/>
  <path d="M95.2025 91.9977V105.998H93.2069V91.9977H95.2025Z" fill="black"/>
  <path d="M102.435 91.9977L106.684 97.8219H106.813L111.062 91.9977H113.411L108.229 98.9977L113.411 105.998H111.062L106.813 100.283H106.684L102.435 105.998H100.086L105.397 98.9977L100.086 91.9977H102.435Z" fill="black"/>
  <path d="M14 83V38.3571H33.2258C36.8551 38.3571 39.8714 38.8658 42.2746 39.883C44.6942 40.8857 46.5007 42.259 47.6942 44.0029C48.9039 45.7468 49.5088 47.7231 49.5088 49.932C49.5088 51.7485 49.1165 53.3035 48.3318 54.5969C47.547 55.8757 46.4926 56.9147 45.1683 57.714C43.8441 58.5133 42.3646 59.0873 40.7297 59.4361V59.872C42.5117 59.9592 44.2201 60.4461 45.855 61.3325C47.5062 62.2045 48.8549 63.4397 49.9012 65.0382C50.9475 66.6368 51.4707 68.5695 51.4707 70.8366C51.4707 73.1472 50.8412 75.2253 49.5824 77.0709C48.3236 78.9019 46.4272 80.3479 43.8931 81.4087C41.3591 82.4696 38.1712 83 34.3293 83H14ZM23.0979 76.2425H32.8825C36.1848 76.2425 38.5636 75.683 40.0186 74.5641C41.4899 73.4306 42.2256 71.9773 42.2256 70.2044C42.2256 68.882 41.8578 67.6904 41.1221 66.6295C40.3864 65.5541 39.3401 64.7113 37.9832 64.1009C36.6263 63.476 35.0078 63.1636 33.1277 63.1636H23.0979V76.2425ZM23.0979 57.3434H32.0977C33.6672 57.3434 35.0813 57.0891 36.3402 56.5805C37.599 56.0573 38.5881 55.3235 39.3074 54.3789C40.0431 53.4197 40.4109 52.2862 40.4109 50.9783C40.4109 49.249 39.7243 47.8249 38.351 46.7059C36.9941 45.5869 34.9751 45.0274 32.2939 45.0274H23.0979V57.3434Z" fill="black"/>
  <path d="M57.0508 61.1499V34.3642H63.4218V56.4808H76.3403V61.1499H57.0508Z" fill="black"/>
  <path d="M72.3625 83V77.3603L101.201 40.5928H72.1977V33H113.835V38.6396L85.024 75.4072H114V83H72.3625Z" fill="black"/>
</svg>
